# xmcd
#
# Track frame offsets: 
#        150
#        16727
#        47229
#        62401
#        88923
#        114590
#        127977
#        146724
#        165801
#        182203
#        198035
#        224587
#        249014
#        263056
#        293453
#        316940
#        329132
#
# Disc length: 4772 seconds
#
# Revision: 0
# Processed by: cddbd v1.5.2PL0 Copyright (c) Steve Scherf et al.
# Submitted via: ExactAudioCopy v0.99pb4
#
DISCID=ec12a211
DTITLE=Various Artist - Remember 2005
DYEAR=2005
DGENRE=Blues
TTITLE0=Ray Charles - Georgia On My Mind
TTITLE1=Oscar Peterson Four - Weird Blues
TTITLE2=Lionel Hampton - Mr. Freddies Blues
TTITLE3=Gene Harris - Smack Dab In The Middle
TTITLE4=Hot Mallets - Stuffy
TTITLE5=Nat King Cole Trio - Route 66
TTITLE6=Wild Bill Davis - Ain't Misbehavin'
TTITLE7=Etta James - The Jealous Kind
TTITLE8=Cannonball Adderley - Backdoor Blues
TTITLE9=Jay McShann Trio - Hooties Blues
TTITLE10=Ella Fitzgerald - Cheek To Cheek
TTITLE11=Monty Alexander Trio - Creole Love Call
TTITLE12=Joe Turner And Friends - Ready For The River
TTITLE13=Ben Webster - In A Mellowtone
TTITLE14=J.J.Cale - Pack My Jack
TTITLE15=Ray Charles - Baby Let Me Hold Your Hand
TTITLE16=André Previn Trio - Sweet Georgia Brown
EXTD=
EXTT0=
EXTT1=
EXTT2=
EXTT3=
EXTT4=
EXTT5=
EXTT6=
EXTT7=
EXTT8=
EXTT9=
EXTT10=
EXTT11=
EXTT12=
EXTT13=
EXTT14=
EXTT15=
EXTT16=
PLAYORDER=
